<svg width="279" height="222" viewBox="0 0 279 222" fill="none" xmlns="http://www.w3.org/2000/svg">
<g clip-path="url(#clip0_30_6)">
<path d="M245.078 215.425L239.278 215.425L236.519 193.079L245.079 193.08L245.078 215.425Z" fill="#FFB6B6"/>
<path d="M245.282 221.469L227.446 221.468V221.243C227.446 217.413 230.554 214.309 234.388 214.309L237.647 211.84L243.725 214.309L245.282 214.309L245.282 221.469Z" fill="#2F2E41"/>
<path d="M219.364 215.425L213.564 215.425L210.805 193.079L219.365 193.08L219.364 215.425Z" fill="#FFB6B6"/>
<path d="M219.568 221.469L201.732 221.468V221.243C201.733 217.413 204.841 214.309 208.675 214.309L211.933 211.84L218.012 214.309L219.569 214.309L219.568 221.469Z" fill="#2F2E41"/>
<path d="M216.6 90.7185L250.063 91.4222C250.063 91.4222 256.079 101.273 251.486 115.171L252 119.041L249.887 125.022L248.83 143.317L249.887 146.132L249.183 151.41C249.183 151.41 252 186.241 244.956 203.833L236.502 203.481L233.332 157.583L235.093 154.224L234.741 152.817L230.514 131.707L226.287 142.614V148.674L222.412 153.169C222.412 153.169 223.821 194.685 219.947 203.129H210.482L206.914 146.836L210.436 114.115L209.732 112.004L210.788 110.949L210.084 107.431L216.6 90.7185Z" fill="#2F2E41"/>
<path d="M230.866 26.5091L241.081 24.0463L243.899 30.7311C243.899 30.7311 258.478 38.4714 259.183 49.0264C259.183 49.0264 261.159 57.4703 259.397 61.3405C257.636 65.2106 250.239 77.5247 250.239 77.5247C250.239 77.5247 256.932 98.9865 255.171 100.042C253.409 101.098 211.493 98.9865 211.493 96.8755C211.493 94.7645 218.469 72.5991 218.469 72.5991L219.947 34.6012L229.457 31.0829L230.866 26.5091Z" fill="#3F3D56"/>
<path d="M258.099 113.118C255.961 112.042 255.101 109.438 256.178 107.303C256.286 107.088 256.414 106.889 256.551 106.701L250.867 67.7755L258.737 68.027L262.853 105.954C264.345 107.218 264.84 109.377 263.92 111.2C262.843 113.335 260.237 114.194 258.099 113.118Z" fill="#FFB6B6"/>
<path d="M183.43 94.7463C182.57 92.5148 183.683 90.0089 185.917 89.1491C186.142 89.0625 186.37 89.0012 186.598 88.9538L208.556 56.2981L214.218 61.7627L191.77 92.627C192.026 94.5643 190.94 96.4963 189.034 97.2298C186.8 98.0896 184.291 96.9777 183.43 94.7463Z" fill="#FFB6B6"/>
<path d="M243.759 57.9574C241.536 50.3277 245.229 42.5435 253.184 42.5811C255.483 42.592 257.27 43.2585 257.765 45.1033C259.498 51.5601 260.443 61.3068 260.443 61.3068L262.498 71.684L261.253 73.8386L263.849 80.7929L262.59 84.083L262.318 100.884L255.977 100.532L248.992 87.7241L246.32 86.1375C246.32 86.1375 248.465 65.4286 244.199 59.466L243.759 57.9574Z" fill="#3F3D56"/>
<path d="M215.359 39.1805C219.067 32.1498 228.558 30.4844 234.254 36.0319C235.901 37.6353 236.722 39.3544 235.795 41.0249C232.55 46.8716 225.03 53.1668 225.03 53.1668L215.768 68.0385L213.374 68.7243L210.404 75.5276L204.04 83.0014L195.611 87.4416L190.68 82.516L191.727 76.1842L204.417 59.295C204.417 59.295 213.548 47.82 214.626 40.5707L215.359 39.1805Z" fill="#3F3D56"/>
<path d="M232.807 24.4528C233.04 24.4808 233.273 24.5018 233.504 24.5123C234.224 24.5518 234.935 24.5108 235.621 24.3947C237.703 24.0613 239.595 23.076 241.055 21.6311C242.599 20.1065 243.655 18.0716 243.941 15.755C244.61 10.2868 240.711 5.3056 235.237 4.63745C229.841 3.97501 224.922 7.74474 224.137 13.0874C224.124 13.1701 224.112 13.2494 224.103 13.3317C223.434 18.8034 227.329 23.7815 232.807 24.4528Z" fill="#FFB6B6"/>
<path d="M221.885 12.7214C223.304 13.4219 225.621 11.2197 226.508 12.4867C226.652 12.2129 226.812 11.9481 226.969 11.6977C227.111 11.4736 227.315 10.9953 227.55 10.9134C227.252 11.6319 227.318 12.605 227.627 13.4387C229.026 13.9608 230.858 12.8051 232.152 11.4382C234.185 9.29479 237.505 14.7911 236.72 17.6355C237.719 16.4171 239.887 17.1043 240.621 18.4974C241.355 19.8871 240.115 21.0005 239.85 22.5506L241.852 22.2966C243.116 21.0674 243.027 18.9962 244.068 17.5716C245.806 15.1875 246.479 12.7549 245.173 10.2944C244.014 8.11875 243.905 5.30304 241.779 4.04874C242.708 3.5951 239.405 4.30379 240.287 2.82542C241.173 1.35016 236.449 1.1711 236.141 1.96146C234.791 0.347766 233.43 -0.716178 231.769 0.576856C230.139 1.84899 230.307 3.18616 228.392 3.06633C227.493 3.01071 227.592 4.68448 227.058 5.41422C226.526 6.14006 224.462 6.60602 224.361 6.52834C223.816 6.10214 221.96 9.73036 221.96 9.73036C221.96 9.73036 220.456 12.0116 221.885 12.7214Z" fill="#2F2E41"/>
<path d="M96.895 76.0477C130.451 76.0477 157.653 103.219 157.653 136.736C157.653 170.253 130.451 197.424 96.895 197.424C63.3391 197.424 16.8989 164.193 36.1366 136.736C55.3743 109.279 63.3391 76.0477 96.895 76.0477Z" fill="#F2F2F2"/>
<path d="M178.216 78.9347C177.671 78.9347 177.228 79.3773 177.228 79.9215V111.499C177.228 112.043 177.671 112.486 178.216 112.486C178.761 112.486 179.204 112.043 179.204 111.499V79.9215C179.204 79.3773 178.761 78.9347 178.216 78.9347Z" fill="#3F3D56"/>
<path d="M12.2415 55.2516C11.6966 55.2516 11.2536 55.6942 11.2536 56.2384V64.1327C11.2536 64.677 11.6966 65.1195 12.2415 65.1195C12.7864 65.1195 13.2294 64.677 13.2294 64.1327V56.2384C13.2294 55.6941 12.7864 55.2516 12.2415 55.2516Z" fill="#3F3D56"/>
<path d="M12.2415 78.9347C11.6966 78.9347 11.2536 79.3773 11.2536 79.9215V95.2168C11.2536 95.7611 11.6966 96.2036 12.2415 96.2036C12.7864 96.2036 13.2294 95.7611 13.2294 95.2168V79.9215C13.2294 79.3773 12.7864 78.9347 12.2415 78.9347Z" fill="#3F3D56"/>
<path d="M12.2415 100.644C11.6966 100.644 11.2536 101.087 11.2536 101.631V116.926C11.2536 117.471 11.6966 117.913 12.2415 117.913C12.7864 117.913 13.2294 117.471 13.2294 116.926V101.631C13.2294 101.087 12.7864 100.644 12.2415 100.644Z" fill="#3F3D56"/>
<path d="M100.847 24.1675C100.302 24.1675 99.8589 24.61 99.8589 25.1543V40.4496C99.8589 40.9939 100.302 41.4364 100.847 41.4364C101.392 41.4364 101.835 40.9939 101.835 40.4496V25.1543C101.835 24.61 101.392 24.1675 100.847 24.1675Z" fill="#3F3D56"/>
<path d="M252.198 213.448C253.218 213.512 253.782 212.245 253.01 211.507L252.933 211.202C252.943 211.178 252.954 211.153 252.964 211.129C253.996 208.671 257.493 208.688 258.517 211.15C259.425 213.335 260.581 215.523 260.866 217.833C260.994 218.853 260.936 219.892 260.71 220.893C262.838 216.249 263.958 211.179 263.958 206.08C263.958 204.799 263.887 203.518 263.744 202.24C263.626 201.195 263.463 200.156 263.252 199.127C262.113 193.563 259.647 188.263 256.09 183.836C254.38 182.903 252.954 181.443 252.092 179.694C251.783 179.063 251.54 178.384 251.425 177.692C251.62 177.718 252.159 174.757 252.012 174.576C252.284 174.165 252.769 173.96 253.065 173.559C254.538 171.564 256.568 171.912 257.628 174.623C259.891 175.765 259.913 177.657 258.524 179.477C257.641 180.635 257.519 182.202 256.744 183.441C256.824 183.543 256.907 183.642 256.986 183.744C258.449 185.618 259.714 187.632 260.781 189.748C260.479 187.396 260.924 184.563 261.683 182.737C262.546 180.656 264.165 178.904 265.59 177.105C267.302 174.944 270.813 175.887 271.115 178.626C271.118 178.653 271.121 178.679 271.123 178.706C270.912 178.825 270.704 178.952 270.502 179.086C269.346 179.849 269.745 181.638 271.115 181.849L271.146 181.854C271.069 182.616 270.938 183.371 270.747 184.114C272.576 191.177 268.628 193.75 262.991 193.865C262.866 193.929 262.745 193.993 262.621 194.053C263.192 195.659 263.648 197.307 263.986 198.977C264.289 200.452 264.5 201.944 264.618 203.442C264.765 205.331 264.752 207.231 264.592 209.117L264.602 209.05C265.007 206.973 266.137 205.032 267.777 203.687C270.22 201.683 273.671 200.944 276.307 199.333C277.575 198.558 279.201 199.56 278.98 201.029L278.969 201.099C278.576 201.259 278.194 201.444 277.823 201.651C277.612 201.77 277.404 201.897 277.202 202.031C276.046 202.794 276.445 204.583 277.815 204.794L277.846 204.799C277.868 204.802 277.887 204.806 277.91 204.809C277.236 206.405 276.298 207.887 275.124 209.165C273.981 215.331 269.07 215.916 263.817 214.121H263.814C263.24 216.619 262.401 219.06 261.322 221.386H252.421C252.389 221.288 252.36 221.186 252.331 221.087C253.155 221.138 253.984 221.09 254.795 220.94C254.134 220.131 253.474 219.315 252.813 218.506C252.797 218.49 252.784 218.474 252.772 218.458C252.437 218.044 252.099 217.632 251.764 217.218L251.763 217.218C251.742 215.946 251.895 214.678 252.198 213.448Z" fill="#F2F2F2"/>
<path d="M0 221.413C0 221.739 0.26182 222 0.587855 222H278.343C278.669 222 278.931 221.739 278.931 221.413C278.931 221.087 278.669 220.826 278.343 220.826H0.587855C0.26182 220.826 0 221.087 0 221.413Z" fill="#CCCCCC"/>
<path d="M70.3296 132.645H36.1366V131.658H70.3296C73.3 131.658 75.7165 129.244 75.7165 126.277V103.185H76.7045V126.277C76.7045 129.788 73.8448 132.645 70.3296 132.645Z" fill="#514FFF"/>
<path d="M135.573 182.703H57.804V183.689H135.573V182.703Z" fill="#514FFF"/>
<path d="M184.915 126.047H143.376C141.134 126.047 139.31 124.225 139.31 121.986V81.0013C139.31 78.7622 141.134 76.9406 143.376 76.9406H184.915C187.156 76.9406 188.98 78.7622 188.98 81.0013V121.986C188.98 124.225 187.156 126.047 184.915 126.047Z" fill="#E6E6E6"/>
<path d="M151.112 78.1505C145.263 78.1505 140.522 82.8862 140.522 88.7281V121.116C140.522 123.171 142.189 124.837 144.246 124.837H169.646C179.655 124.837 187.769 116.732 187.769 106.735V81.8708C187.769 79.8161 186.101 78.1505 184.044 78.1505L151.112 78.1505Z" fill="white"/>
<path d="M175.27 90.0608H152.933C152.507 90.0608 152.16 89.7144 152.16 89.2888C152.16 88.8631 152.507 88.5169 152.933 88.5169H175.27C175.697 88.5169 176.043 88.8631 176.043 89.2888C176.043 89.7144 175.697 90.0608 175.27 90.0608Z" fill="#E6E6E6"/>
<path d="M175.27 106.522H152.933C152.507 106.522 152.16 106.176 152.16 105.75C152.16 105.325 152.507 104.978 152.933 104.978H175.27C175.697 104.978 176.043 105.325 176.043 105.75C176.043 106.176 175.697 106.522 175.27 106.522Z" fill="#E6E6E6"/>
<path d="M184.341 98.2969H143.862C143.436 98.2969 143.089 97.9506 143.089 97.5249C143.089 97.0993 143.436 96.7531 143.862 96.7531H184.341C184.768 96.7531 185.114 97.0993 185.114 97.5249C185.114 97.9506 184.768 98.2969 184.341 98.2969Z" fill="#E6E6E6"/>
<path d="M184.755 113.216H170.131C169.705 113.216 169.358 112.869 169.358 112.444C169.358 112.018 169.705 111.672 170.131 111.672H184.755C185.181 111.672 185.527 112.018 185.527 112.444C185.527 112.869 185.181 113.216 184.755 113.216Z" fill="#E6E6E6"/>
<path d="M97.6637 207.706H64.679C62.8989 207.706 61.4508 206.26 61.4508 204.482V171.937C61.4508 170.159 62.8989 168.713 64.679 168.713H97.6637C99.4437 168.713 100.892 170.159 100.892 171.937V204.482C100.892 206.26 99.4437 207.706 97.6637 207.706Z" fill="#E6E6E6"/>
<path d="M70.8218 169.673C66.1775 169.673 62.4126 173.434 62.4126 178.073V203.791C62.4126 205.423 63.7368 206.745 65.3702 206.745H85.5395C93.4872 206.745 99.93 200.31 99.93 192.372V172.628C99.93 170.996 98.6058 169.673 96.9724 169.673L70.8218 169.673Z" fill="white"/>
<path d="M90.0056 179.131H72.2679C71.9295 179.131 71.6542 178.856 71.6542 178.518C71.6542 178.18 71.9295 177.905 72.2679 177.905H90.0056C90.344 177.905 90.6192 178.18 90.6192 178.518C90.6192 178.856 90.344 179.131 90.0056 179.131Z" fill="#E6E6E6"/>
<path d="M90.0056 192.203H72.2679C71.9295 192.203 71.6542 191.927 71.6542 191.589C71.6542 191.251 71.9295 190.977 72.2679 190.977H90.0056C90.344 190.977 90.6192 191.251 90.6192 191.589C90.6192 191.927 90.344 192.203 90.0056 192.203Z" fill="#E6E6E6"/>
<path d="M97.2084 185.671H65.0651C64.7267 185.671 64.4513 185.396 64.4513 185.058C64.4513 184.72 64.7267 184.445 65.0651 184.445H97.2084C97.5468 184.445 97.8221 184.72 97.8221 185.058C97.8221 185.396 97.5468 185.671 97.2084 185.671Z" fill="#E6E6E6"/>
<path d="M97.5366 197.517H85.9247C85.5863 197.517 85.311 197.242 85.311 196.904C85.311 196.566 85.5863 196.292 85.9247 196.292H97.5366C97.875 196.292 98.1503 196.566 98.1503 196.904C98.1503 197.242 97.875 197.517 97.5366 197.517Z" fill="#E6E6E6"/>
<path d="M74.6094 102.936H50.2158C48.8994 102.936 47.8284 101.866 47.8284 100.551V76.4829C47.8284 75.168 48.8994 74.0983 50.2158 74.0983H74.6094C75.9258 74.0983 76.9968 75.168 76.9968 76.4829V100.551C76.9968 101.866 75.9258 102.936 74.6094 102.936Z" fill="#E6E6E6"/>
<path d="M54.7586 74.8087C51.324 74.8087 48.5397 77.5898 48.5397 81.0204V100.04C48.5397 101.247 49.519 102.225 50.727 102.225H65.6431C71.5207 102.225 76.2855 97.4658 76.2855 91.595V76.9935C76.2855 75.7869 75.3062 74.8087 74.0982 74.8087L54.7586 74.8087Z" fill="white"/>
<path d="M68.9459 81.8031H55.8282C55.5779 81.8031 55.3743 81.5997 55.3743 81.3497C55.3743 81.0997 55.5779 80.8964 55.8282 80.8964H68.9459C69.1962 80.8964 69.3997 81.0997 69.3997 81.3497C69.3997 81.5997 69.1962 81.8031 68.9459 81.8031Z" fill="#E6E6E6"/>
<path d="M68.9459 91.4701H55.8282C55.5779 91.4701 55.3743 91.2667 55.3743 91.0167C55.3743 90.7667 55.5779 90.5634 55.8282 90.5634H68.9459C69.1962 90.5634 69.3997 90.7667 69.3997 91.0167C69.3997 91.2667 69.1962 91.4701 68.9459 91.4701Z" fill="#E6E6E6"/>
<path d="M74.2727 86.6397H50.5013C50.2511 86.6397 50.0474 86.4363 50.0474 86.1864C50.0474 85.9364 50.2511 85.7331 50.5013 85.7331H74.2727C74.523 85.7331 74.7266 85.9364 74.7266 86.1864C74.7266 86.4363 74.523 86.6397 74.2727 86.6397Z" fill="#E6E6E6"/>
<path d="M74.5155 95.4007H65.928C65.6777 95.4007 65.4741 95.1973 65.4741 94.9473C65.4741 94.6973 65.6777 94.494 65.928 94.494H74.5155C74.7657 94.494 74.9693 94.6973 74.9693 94.9473C74.9693 95.1973 74.7657 95.4007 74.5155 95.4007Z" fill="#E6E6E6"/>
<path d="M145.798 133.282C148.526 133.282 150.738 131.073 150.738 128.348C150.738 125.623 148.526 123.414 145.798 123.414C143.07 123.414 140.858 125.623 140.858 128.348C140.858 131.073 143.07 133.282 145.798 133.282Z" fill="#514FFF"/>
<path d="M76.1483 108.119C78.8764 108.119 81.088 105.91 81.088 103.185C81.088 100.46 78.8764 98.2506 76.1483 98.2506C73.4201 98.2506 71.2085 100.46 71.2085 103.185C71.2085 105.91 73.4201 108.119 76.1483 108.119Z" fill="#514FFF"/>
<path d="M99.8589 175.714C102.587 175.714 104.799 173.505 104.799 170.78C104.799 168.055 102.587 165.846 99.8589 165.846C97.1307 165.846 94.9192 168.055 94.9192 170.78C94.9192 173.505 97.1307 175.714 99.8589 175.714Z" fill="#514FFF"/>
<path d="M110.529 38.9059C113.929 38.9059 116.686 36.2107 116.686 32.8861C116.686 29.5614 113.929 26.8663 110.529 26.8663C107.129 26.8663 104.373 29.5614 104.373 32.8861C104.373 36.2107 107.129 38.9059 110.529 38.9059Z" fill="#F2F2F2"/>
<path d="M159.883 30.8266H126.745C125.608 30.8266 124.683 29.9028 124.683 28.7672C124.683 27.6317 125.608 26.7078 126.745 26.7078H159.883C161.02 26.7078 161.945 27.6317 161.945 28.7672C161.945 29.9028 161.02 30.8266 159.883 30.8266Z" fill="#F2F2F2"/>
<path d="M185.744 37.7969H126.745C125.608 37.7969 124.683 36.873 124.683 35.7375C124.683 34.602 125.608 33.6781 126.745 33.6781H185.744C186.881 33.6781 187.806 34.602 187.806 35.7375C187.806 36.873 186.881 37.7969 185.744 37.7969Z" fill="#F2F2F2"/>
<path d="M21.4182 64.2061C23.6187 64.2061 25.4025 62.4618 25.4025 60.3102C25.4025 58.1585 23.6187 56.4142 21.4182 56.4142C19.2176 56.4142 17.4338 58.1585 17.4338 60.3102C17.4338 62.4618 19.2176 64.2061 21.4182 64.2061Z" fill="#F2F2F2"/>
<path d="M53.3594 58.9773H31.9129C31.1772 58.9773 30.5786 58.3794 30.5786 57.6445C30.5786 56.9096 31.1772 56.3117 31.9129 56.3117H53.3594C54.0951 56.3117 54.6937 56.9096 54.6937 57.6445C54.6937 58.3794 54.0951 58.9773 53.3594 58.9773Z" fill="#F2F2F2"/>
<path d="M70.0963 63.4884H31.9129C31.1772 63.4884 30.5786 62.8905 30.5786 62.1556C30.5786 61.4207 31.1772 60.8228 31.9129 60.8228H70.0963C70.832 60.8228 71.4306 61.4207 71.4306 62.1556C71.4306 62.8905 70.832 63.4884 70.0963 63.4884Z" fill="#F2F2F2"/>
<path d="M140.959 202.851C143.16 202.851 144.944 201.107 144.944 198.955C144.944 196.803 143.16 195.059 140.959 195.059C138.759 195.059 136.975 196.803 136.975 198.955C136.975 201.107 138.759 202.851 140.959 202.851Z" fill="#F2F2F2"/>
<path d="M172.9 197.622H151.454C150.718 197.622 150.12 197.024 150.12 196.289C150.12 195.555 150.718 194.957 151.454 194.957H172.9C173.636 194.957 174.235 195.555 174.235 196.289C174.235 197.024 173.636 197.622 172.9 197.622Z" fill="#F2F2F2"/>
<path d="M189.637 202.133H151.454C150.718 202.133 150.12 201.535 150.12 200.801C150.12 200.066 150.718 199.468 151.454 199.468H189.637C190.373 199.468 190.972 200.066 190.972 200.801C190.972 201.535 190.373 202.133 189.637 202.133Z" fill="#F2F2F2"/>
<path d="M93.0667 76.9555H92.0788V123.828H93.0667V76.9555Z" fill="#E6E6E6"/>
<path d="M92.5727 126.789C94.2096 126.789 95.5365 125.463 95.5365 123.828C95.5365 122.193 94.2096 120.868 92.5727 120.868C90.9358 120.868 89.6089 122.193 89.6089 123.828C89.6089 125.463 90.9358 126.789 92.5727 126.789Z" fill="#E6E6E6"/>
<path d="M137.524 160.833C139.161 160.833 140.488 159.508 140.488 157.873C140.488 156.238 139.161 154.912 137.524 154.912C135.887 154.912 134.56 156.238 134.56 157.873C134.56 159.508 135.887 160.833 137.524 160.833Z" fill="#E6E6E6"/>
<path d="M57.5008 120.375C59.1376 120.375 60.4646 119.049 60.4646 117.414C60.4646 115.779 59.1376 114.454 57.5008 114.454C55.8639 114.454 54.5369 115.779 54.5369 117.414C54.5369 119.049 55.8639 120.375 57.5008 120.375Z" fill="#E6E6E6"/>
<path d="M56.4055 117.419L40.1969 117.909L40.2268 118.896L56.4354 118.405L56.4055 117.419Z" fill="#E6E6E6"/>
<path d="M161.635 169.206H137.057V157.873H138.045V168.219H161.635V169.206Z" fill="#E6E6E6"/>
<path d="M56.2842 152.7C57.9211 152.7 59.248 151.374 59.248 149.739C59.248 148.104 57.9211 146.779 56.2842 146.779C54.6473 146.779 53.3204 148.104 53.3204 149.739C53.3204 151.374 54.6473 152.7 56.2842 152.7Z" fill="#E6E6E6"/>
<path d="M80.1028 161.072H55.5249V149.739H56.5128V160.086H80.1028V161.072Z" fill="#E6E6E6"/>
<path d="M155.307 138.475H37.2566V139.461H155.307V138.475Z" fill="#E6E6E6"/>
</g>
<defs>
<clipPath id="clip0_30_6">
<rect width="279" height="222" fill="white"/>
</clipPath>
</defs>
</svg>
