<svg width="572" height="336" viewBox="0 0 572 336" fill="none" xmlns="http://www.w3.org/2000/svg">
<g clip-path="url(#clip0_34_12)">
<path d="M52.7867 335.475L52.76 335.609C52.7283 335.479 52.6978 335.346 52.6689 335.215C52.616 335.004 52.57 334.792 52.5268 334.58C50.8092 326.263 51.7544 317.751 55.2804 309.779C55.9582 308.223 56.7302 306.695 57.5963 305.196C60.9086 299.391 65.6044 294.114 71.4409 289.638C73.336 288.146 75.4982 286.87 77.8621 285.848C78.2092 285.707 78.5582 285.573 78.9149 285.449C81.1011 284.634 83.5625 284.359 85.9599 284.664C86.8308 284.79 87.6749 285.008 88.4681 285.312C88.7463 285.416 89.0141 285.53 89.2768 285.652C90.8793 286.46 92.2476 287.514 93.2959 288.748C94.3443 289.982 95.0502 291.368 95.3694 292.822C95.8248 294.989 95.7206 297.205 95.063 299.342C95.0065 299.546 94.9458 299.749 94.8809 299.952C94.4146 301.376 93.8287 302.775 93.127 304.141C86.1026 318.041 71.007 330.374 52.7867 335.475Z" fill="#F2F2F2"/>
<path d="M88.4213 285.356C82.9403 291.414 77.7626 297.625 72.8883 303.99C68.02 310.35 63.47 316.845 59.2384 323.477C56.8712 327.187 54.6075 330.935 52.4472 334.72C52.2081 335.139 53.0149 335.503 53.2572 335.079C57.1151 328.322 61.3017 321.683 65.8171 315.164C70.3297 308.651 75.1592 302.276 80.3056 296.039C83.1851 292.549 86.1603 289.108 89.2312 285.715C89.5746 285.336 88.7635 284.978 88.4213 285.356Z" fill="white"/>
<path d="M94.2862 299.378C90.1674 303.495 84.1047 306.197 77.4126 306.899C75.5456 307.095 73.6554 307.124 71.7798 306.985C71.1797 306.941 71.1755 307.661 71.7704 307.704C78.7504 308.156 85.6803 306.471 91.0555 303.017C92.5632 302.048 93.9192 300.947 95.0961 299.737C95.4565 299.368 94.6441 299.012 94.2862 299.378Z" fill="white"/>
<path d="M59.1078 321.71C58.1502 320.661 57.3545 319.53 56.7369 318.339C55.326 315.625 54.8251 312.681 55.2804 309.779C55.9582 308.223 56.7302 306.695 57.5963 305.196C57.6488 305.255 57.6803 305.324 57.6879 305.395C57.6955 305.466 57.6788 305.537 57.6395 305.602C57.0296 306.727 56.5911 307.902 56.3329 309.104C55.4058 313.391 56.6928 317.786 59.9194 321.354C59.9602 321.393 59.9873 321.439 59.9982 321.488C60.0091 321.538 60.0033 321.588 59.9815 321.635C59.9454 321.698 59.8886 321.752 59.8169 321.792C59.7451 321.833 59.6609 321.858 59.5725 321.865C59.4842 321.873 59.3948 321.863 59.3132 321.835C59.2317 321.808 59.1609 321.765 59.1078 321.71Z" fill="white"/>
<path d="M78.0018 285.393C76.8745 288.848 77.2102 292.489 78.9601 295.787C79.0221 295.87 79.1238 295.93 79.2432 295.955C79.3625 295.98 79.49 295.968 79.5977 295.921C79.7031 295.872 79.78 295.794 79.8124 295.703C79.8448 295.611 79.8302 295.514 79.7718 295.431C78.1332 292.302 77.8292 288.853 78.9035 285.582C78.9314 285.492 78.9124 285.396 78.8505 285.316C78.7886 285.236 78.6886 285.177 78.5716 285.153C78.4546 285.128 78.3298 285.139 78.2235 285.184C78.1172 285.229 78.0377 285.304 78.0018 285.393Z" fill="white"/>
<path d="M52.6717 318.115L52.7285 318.242C52.6222 318.139 52.515 318.032 52.4104 317.926C52.2359 317.758 52.0674 317.587 51.9005 317.414C45.3566 310.663 41.052 302.787 39.3597 294.468C39.0201 292.848 38.7811 291.219 38.6427 289.582C38.0699 283.258 39.041 276.908 41.506 270.858C42.2833 268.86 43.4274 266.958 44.9036 265.208C45.1256 264.959 45.3536 264.716 45.5949 264.479C47.0382 262.976 49.0522 261.853 51.3595 261.267C52.2067 261.067 53.0858 260.959 53.9718 260.944C54.281 260.937 54.5871 260.943 54.8934 260.957C56.8006 261.1 58.6489 261.544 60.3224 262.262C61.9959 262.98 63.4586 263.956 64.6191 265.129C66.3316 266.886 67.5775 268.885 68.2857 271.012C68.359 271.213 68.4281 271.415 68.4929 271.618C68.9401 273.045 69.2665 274.494 69.4701 275.954C71.6452 290.773 65.7259 307.088 52.6717 318.115Z" fill="#F2F2F2"/>
<path d="M53.9573 261C52.7622 268.323 51.9286 275.673 51.4564 283.051C50.9863 290.422 50.8802 297.8 51.1382 305.184C51.2828 309.316 51.5417 313.443 51.915 317.567C51.9562 318.024 52.8909 318.058 52.8491 317.596C52.1842 310.233 51.8822 302.859 51.9431 295.472C52.0056 288.093 52.4319 280.722 53.2223 273.36C53.6647 269.241 54.2211 265.131 54.8914 261.029C54.9662 260.57 54.0319 260.543 53.9573 261Z" fill="white"/>
<path d="M67.6198 271.322C66.4589 276.439 62.7222 280.998 57.2199 284.011C55.6848 284.851 54.0284 285.552 52.2836 286.099C51.7258 286.275 52.1565 286.913 52.7095 286.739C59.1635 284.645 64.2831 280.678 66.9568 275.699C67.7067 274.302 68.2427 272.843 68.5539 271.351C68.6503 270.895 67.7156 270.87 67.6198 271.322Z" fill="white"/>
<path d="M49.9555 303.666C48.4738 303.079 47.0859 302.362 45.8199 301.528C42.9309 299.629 40.7094 297.201 39.3597 294.468C39.0201 292.848 38.7811 291.219 38.6427 289.582C38.7248 289.616 38.7941 289.665 38.8438 289.725C38.8935 289.786 38.9219 289.855 38.9262 289.926C39.0653 291.14 39.3868 292.337 39.8841 293.494C41.6523 297.622 45.4469 301.054 50.4588 303.061C50.5185 303.081 50.5705 303.112 50.61 303.152C50.6494 303.192 50.6749 303.239 50.684 303.288C50.6897 303.356 50.6721 303.424 50.633 303.486C50.5938 303.547 50.5345 303.6 50.4608 303.638C50.3871 303.676 50.3017 303.699 50.2131 303.704C50.1244 303.709 50.0356 303.696 49.9555 303.666Z" fill="white"/>
<path d="M44.7524 264.755C45.8407 268.218 48.3374 271.322 51.8789 273.618C51.9835 273.668 52.11 273.685 52.2308 273.665C52.3517 273.645 52.4571 273.588 52.5244 273.508C52.5882 273.427 52.609 273.331 52.5825 273.238C52.5561 273.146 52.4844 273.065 52.3823 273.012C49.0413 270.826 46.6892 267.881 45.6652 264.601C45.6351 264.511 45.5606 264.433 45.4573 264.384C45.354 264.335 45.2301 264.319 45.1117 264.339C44.9932 264.359 44.8896 264.414 44.8225 264.491C44.7555 264.569 44.7303 264.664 44.7524 264.755Z" fill="white"/>
<path d="M53.0763 335.564L53.2134 335.648C53.0513 335.605 52.8863 335.559 52.7243 335.514C52.4594 335.444 52.1978 335.37 51.936 335.293C41.6949 332.315 32.5524 327.462 25.3009 321.153C23.8802 319.929 22.5384 318.656 21.2756 317.334C16.3645 312.242 12.7356 306.489 10.5766 300.371C9.83237 298.366 9.46416 296.289 9.48305 294.203C9.49552 293.902 9.51728 293.602 9.5547 293.302C9.71798 291.438 10.6291 289.658 12.1625 288.208C12.7366 287.689 13.4013 287.233 14.1377 286.854C14.3931 286.72 14.6549 286.598 14.9229 286.483C16.6301 285.814 18.4987 285.423 20.4115 285.334C22.3243 285.246 24.2402 285.463 26.0393 285.97C28.7126 286.741 31.1623 287.91 33.2487 289.409C33.4511 289.548 33.6506 289.689 33.847 289.833C35.2236 290.851 36.513 291.936 37.7071 293.082C49.9171 304.668 56.3539 320.866 53.0763 335.564Z" fill="#F2F2F2"/>
<path d="M14.1648 286.908C18.2856 293.573 22.7302 300.111 27.4988 306.523C32.2643 312.929 37.3412 319.189 42.7295 325.304C45.7443 328.725 48.8529 332.096 52.0553 335.416C52.4096 335.783 53.2213 335.425 52.8624 335.053C47.1466 329.125 41.7281 323.037 36.6069 316.788C31.4917 310.544 26.6895 304.156 22.2002 297.626C19.6888 293.972 17.2793 290.279 14.9719 286.545C14.7137 286.127 13.9076 286.492 14.1648 286.908Z" fill="white"/>
<path d="M32.9045 289.946C35.5097 294.738 35.5537 300.127 33.0271 304.945C32.3222 306.289 31.4172 307.565 30.3302 308.749C29.9833 309.128 30.7933 309.488 31.1373 309.112C35.109 304.674 36.6447 299.211 35.4107 293.908C35.0644 292.42 34.4942 290.969 33.7116 289.583C33.4739 289.159 32.6684 289.525 32.9045 289.946Z" fill="white"/>
<path d="M40.6701 324.515C39.0106 324.634 37.3387 324.604 35.6882 324.426C31.9237 324.022 28.3518 322.897 25.3009 321.153C23.8802 319.929 22.5384 318.656 21.2756 317.334C21.3682 317.328 21.4611 317.341 21.5452 317.371C21.6294 317.401 21.7018 317.448 21.7554 317.506C22.7226 318.471 23.8318 319.347 25.061 320.116C29.441 322.861 35.0421 324.182 40.6701 323.796C40.7343 323.788 40.8001 323.793 40.8612 323.81C40.9222 323.828 40.9765 323.857 41.0189 323.894C41.0715 323.95 41.1045 324.014 41.1145 324.082C41.1245 324.15 41.1112 324.219 41.0759 324.282C41.0407 324.344 40.9846 324.399 40.9134 324.44C40.8422 324.481 40.7583 324.507 40.6701 324.515Z" fill="white"/>
<path d="M9.03828 293.884C12.3798 296.351 16.6575 297.933 21.2489 298.4C21.5012 298.425 21.7138 298.216 21.7162 298.04C21.7133 297.946 21.6631 297.855 21.5761 297.789C21.4891 297.722 21.3719 297.683 21.2489 297.681C16.9033 297.223 12.859 295.716 9.69921 293.376C9.26598 293.055 8.60422 293.562 9.03828 293.884Z" fill="white"/>
<path d="M116.873 240.754C117.786 240.273 118.55 239.644 119.112 238.911C119.675 238.178 120.021 237.359 120.127 236.511C120.234 235.664 120.097 234.809 119.727 234.007C119.358 233.205 118.764 232.475 117.988 231.868L120.924 181.459L105.975 182.749L106.843 232.057C105.605 233.128 104.92 234.51 104.918 235.943C104.917 237.376 105.599 238.76 106.835 239.832C108.071 240.904 109.776 241.59 111.626 241.76C113.476 241.93 115.343 241.572 116.873 240.754Z" fill="#FFB8B8"/>
<path d="M144.144 326.087L152.653 327.237L161.062 302.545L149.914 300.847L144.144 326.087Z" fill="#FFB8B8"/>
<path d="M167.672 335.532L140.932 331.916L142.748 323.971L159.157 326.189C160.514 326.373 161.811 326.76 162.973 327.329C164.135 327.897 165.14 328.637 165.931 329.504C166.721 330.372 167.282 331.351 167.581 332.385C167.88 333.419 167.911 334.488 167.672 335.532Z" fill="#2F2E41"/>
<path d="M120.791 329.362L129.43 329.362L133.54 303.735L120.79 303.735L120.791 329.362Z" fill="#FFB8B8"/>
<path d="M146.09 335.531L118.94 335.532L118.94 327.464L135.6 327.464C138.382 327.463 141.05 328.313 143.018 329.826C144.985 331.339 146.09 333.391 146.09 335.531Z" fill="#2F2E41"/>
<path d="M157.54 322.345C157.405 322.345 157.27 322.339 157.136 322.326L146.968 321.683C146.506 321.641 146.058 321.527 145.655 321.348C145.251 321.169 144.898 320.929 144.618 320.642C144.339 320.355 144.138 320.028 144.028 319.679C143.918 319.331 143.901 318.969 143.979 318.616L153.368 278.143L147.024 252.415C146.972 252.206 146.824 252.019 146.606 251.887C146.389 251.756 146.117 251.689 145.841 251.7C145.564 251.71 145.302 251.797 145.103 251.945C144.904 252.092 144.78 252.29 144.756 252.502L136.824 321.126C136.737 321.815 136.306 322.451 135.621 322.899C134.936 323.348 134.051 323.574 133.154 323.531L123.574 323.256C122.735 323.211 121.946 322.93 121.357 322.468C120.768 322.005 120.42 321.393 120.377 320.747L119.734 238.499L169.398 233.724L172.867 274.933L172.853 274.977L160.881 320.323C160.698 320.899 160.27 321.411 159.664 321.778C159.059 322.144 158.311 322.344 157.54 322.345Z" fill="#2F2E41"/>
<path d="M136.108 148.793C145.666 148.793 153.414 142.833 153.414 135.482C153.414 128.131 145.666 122.172 136.108 122.172C126.549 122.172 118.801 128.131 118.801 135.482C118.801 142.833 126.549 148.793 136.108 148.793Z" fill="#FFB8B8"/>
<path d="M152.415 244.51C149.708 244.522 147.053 243.938 144.765 242.827C136.381 238.797 126.859 240.399 121.929 241.712C121.44 241.844 120.919 241.889 120.404 241.844C119.889 241.799 119.394 241.664 118.955 241.451C118.522 241.242 118.156 240.961 117.885 240.627C117.613 240.294 117.444 239.918 117.388 239.527L108.423 177.949C106.921 167.632 115.002 157.932 127.637 154.884C128.112 154.77 128.595 154.661 129.085 154.559C133.017 153.739 137.135 153.591 141.149 154.127C145.163 154.663 148.976 155.869 152.319 157.66C155.724 159.471 158.572 161.833 160.661 164.582C162.751 167.33 164.033 170.397 164.415 173.567L171.962 235.558C172.014 235.959 171.943 236.364 171.757 236.741C171.57 237.118 171.272 237.456 170.886 237.729C168.241 239.612 160.562 244.509 152.415 244.51Z" fill="#6C63FF"/>
<path d="M125.116 191.154L104.891 189.444C104.315 189.395 103.76 189.251 103.263 189.023C102.766 188.794 102.339 188.486 102.011 188.119C101.683 187.752 101.462 187.335 101.362 186.897C101.263 186.458 101.287 186.008 101.434 185.577L106.582 170.487C106.923 168.223 108.416 166.157 110.735 164.739C113.054 163.322 116.009 162.669 118.952 162.925C121.896 163.18 124.587 164.323 126.436 166.103C128.286 167.882 129.142 170.153 128.818 172.418L129.582 187.958C129.604 188.403 129.501 188.846 129.28 189.258C129.059 189.669 128.725 190.039 128.301 190.342C127.877 190.646 127.373 190.875 126.824 191.015C126.274 191.155 125.692 191.203 125.116 191.154Z" fill="#6C63FF"/>
<path d="M171.881 238.596C172.712 238.033 173.372 237.338 173.816 236.558C174.259 235.778 174.475 234.933 174.447 234.082C174.42 233.231 174.151 232.395 173.658 231.633C173.165 230.871 172.461 230.201 171.596 229.671L166.612 179.357L151.963 181.893L160.562 230.891C159.5 232.069 159.037 233.505 159.26 234.928C159.483 236.35 160.377 237.661 161.772 238.61C163.168 239.56 164.967 240.083 166.83 240.08C168.694 240.078 170.491 239.549 171.881 238.596Z" fill="#FFB8B8"/>
<path d="M146.347 187.991C145.923 187.688 145.589 187.318 145.368 186.906C145.147 186.495 145.044 186.051 145.066 185.606L145.83 170.066C145.506 167.802 146.362 165.531 148.212 163.751C150.061 161.972 152.753 160.829 155.696 160.574C158.639 160.318 161.594 160.97 163.913 162.388C166.232 163.805 167.726 165.872 168.066 168.135L173.214 183.226C173.361 183.657 173.385 184.107 173.286 184.545C173.186 184.984 172.965 185.401 172.637 185.768C172.309 186.135 171.882 186.443 171.385 186.672C170.888 186.9 170.333 187.044 169.758 187.092L149.532 188.803C148.956 188.852 148.374 188.804 147.824 188.664C147.275 188.524 146.771 188.294 146.347 187.991Z" fill="#6C63FF"/>
<path d="M135.078 149.294C134.771 149.294 134.464 149.266 134.165 149.212L134.077 149.196C118.86 147.405 115.498 140.627 114.759 137.796C113.995 134.865 114.865 132.036 116.831 130.937C115.759 128.335 115.932 126.027 117.344 124.075C119.807 120.672 125.152 119.521 125.869 119.38C130.138 116.958 135.245 118.575 136.174 118.903C144.432 116.553 147.588 118.509 148.159 118.946C151.85 119.456 154.1 120.552 154.846 122.206C156.249 125.312 151.813 129.175 151.623 129.338L151.525 129.422L144.915 129.664C144.288 129.688 143.674 129.812 143.113 130.029C142.552 130.246 142.057 130.552 141.66 130.925C141.263 131.299 140.972 131.733 140.806 132.199C140.641 132.665 140.605 133.152 140.7 133.63C140.879 134.246 141.105 134.853 141.377 135.448C142.506 138.161 143.352 140.479 142.261 141.36C142.014 141.531 141.709 141.644 141.382 141.688C141.055 141.732 140.718 141.704 140.411 141.607C139.378 141.395 138.676 141.439 138.326 141.74C137.784 142.205 137.949 143.384 138.793 145.059C139.058 145.589 139.129 146.164 138.999 146.723C138.869 147.281 138.543 147.802 138.056 148.228C137.689 148.561 137.233 148.828 136.719 149.012C136.205 149.196 135.645 149.292 135.078 149.294Z" fill="#2F2E41"/>
<path d="M339.468 191.845H254.207C251.031 191.842 247.986 190.871 245.74 189.144C243.494 187.417 242.231 185.075 242.228 182.632V84.0913C242.231 81.6487 243.494 79.307 245.74 77.5798C247.986 75.8527 251.031 74.8811 254.207 74.8784H339.468C342.644 74.8811 345.689 75.8527 347.935 77.5798C350.18 79.307 351.444 81.6487 351.447 84.0913V182.632C351.444 185.075 350.18 187.417 347.935 189.144C345.689 190.871 342.644 191.842 339.468 191.845ZM254.207 75.9623C251.404 75.9647 248.718 76.8219 246.736 78.3459C244.755 79.8699 243.64 81.9361 243.637 84.0913V182.632C243.64 184.787 244.755 186.854 246.736 188.378C248.718 189.902 251.404 190.759 254.207 190.761H339.468C342.27 190.759 344.957 189.902 346.939 188.378C348.92 186.854 350.035 184.787 350.038 182.632V84.0913C350.035 81.9361 348.92 79.8699 346.939 78.3459C344.957 76.8219 342.27 75.9647 339.468 75.9623H254.207Z" fill="#3F3D56"/>
<path d="M326.432 122.252H267.242C265.654 122.251 264.132 121.765 263.009 120.902C261.886 120.038 261.255 118.867 261.253 117.646V95.9684C261.255 94.7471 261.886 93.5762 263.009 92.7126C264.132 91.849 265.654 91.3633 267.242 91.3619H326.432C328.02 91.3633 329.543 91.8491 330.665 92.7127C331.788 93.5762 332.42 94.7471 332.422 95.9684V117.646C332.42 118.867 331.788 120.038 330.665 120.901C329.543 121.765 328.02 122.251 326.432 122.252Z" fill="#6C63FF"/>
<path d="M322.204 142.575H271.47C269.975 142.575 268.541 142.118 267.484 141.305C266.427 140.492 265.833 139.389 265.833 138.239C265.833 137.089 266.427 135.987 267.484 135.174C268.541 134.361 269.975 133.904 271.47 133.904H322.204C323.7 133.904 325.133 134.361 326.191 135.174C327.248 135.987 327.842 137.089 327.842 138.239C327.842 139.389 327.248 140.492 326.191 141.305C325.133 142.118 323.7 142.575 322.204 142.575Z" fill="#CCCCCC"/>
<path d="M322.204 158.833H271.47C269.975 158.833 268.541 158.376 267.484 157.563C266.427 156.75 265.833 155.647 265.833 154.497C265.833 153.347 266.427 152.245 267.484 151.432C268.541 150.619 269.975 150.162 271.47 150.162H322.204C323.7 150.162 325.133 150.619 326.191 151.432C327.248 152.245 327.842 153.347 327.842 154.497C327.842 155.647 327.248 156.75 326.191 157.563C325.133 158.376 323.7 158.833 322.204 158.833Z" fill="#CCCCCC"/>
<path d="M322.204 175.091H271.47C269.975 175.091 268.541 174.634 267.484 173.821C266.427 173.008 265.833 171.905 265.833 170.755C265.833 169.606 266.427 168.503 267.484 167.69C268.541 166.877 269.975 166.42 271.47 166.42H322.204C323.7 166.42 325.133 166.877 326.191 167.69C327.248 168.503 327.842 169.606 327.842 170.755C327.842 171.905 327.248 173.008 326.191 173.821C325.133 174.634 323.7 175.091 322.204 175.091Z" fill="#CCCCCC"/>
<path d="M547.338 247.123H462.076C458.9 247.12 455.855 246.148 453.609 244.421C451.364 242.694 450.1 240.352 450.097 237.91V139.369C450.1 136.926 451.364 134.584 453.609 132.857C455.855 131.13 458.9 130.159 462.076 130.156H547.338C550.513 130.159 553.558 131.13 555.804 132.857C558.05 134.584 559.313 136.926 559.316 139.369V237.91C559.313 240.352 558.05 242.694 555.804 244.421C553.558 246.148 550.513 247.12 547.338 247.123ZM462.076 131.24C459.274 131.242 456.587 132.099 454.605 133.623C452.624 135.147 451.509 137.214 451.506 139.369V237.91C451.509 240.065 452.624 242.131 454.605 243.655C456.587 245.179 459.274 246.036 462.076 246.039H547.338C550.14 246.036 552.826 245.179 554.808 243.655C556.789 242.131 557.904 240.065 557.907 237.91V139.369C557.904 137.214 556.789 135.147 554.808 133.623C552.826 132.099 550.14 131.242 547.338 131.24H462.076Z" fill="#3F3D56"/>
<path d="M530.074 154.497H479.34C477.845 154.497 476.411 154.041 475.354 153.227C474.296 152.414 473.703 151.312 473.703 150.162C473.703 149.012 474.296 147.909 475.354 147.096C476.411 146.283 477.845 145.826 479.34 145.826H530.074C531.569 145.826 533.003 146.283 534.06 147.096C535.117 147.909 535.711 149.012 535.711 150.162C535.711 151.312 535.117 152.414 534.06 153.227C533.003 154.041 531.569 154.497 530.074 154.497Z" fill="#CCCCCC"/>
<path d="M530.074 170.755H479.34C477.845 170.755 476.411 170.299 475.354 169.486C474.296 168.672 473.703 167.57 473.703 166.42C473.703 165.27 474.296 164.167 475.354 163.354C476.411 162.541 477.845 162.084 479.34 162.084H530.074C531.569 162.084 533.003 162.541 534.06 163.354C535.117 164.167 535.711 165.27 535.711 166.42C535.711 167.57 535.117 168.672 534.06 169.486C533.003 170.299 531.569 170.755 530.074 170.755Z" fill="#CCCCCC"/>
<path d="M534.302 212.213H475.112C473.524 212.212 472.002 211.726 470.879 210.862C469.756 209.999 469.124 208.828 469.122 207.607V185.929C469.124 184.708 469.756 183.537 470.879 182.674C472.002 181.81 473.524 181.324 475.112 181.323H534.302C535.89 181.324 537.412 181.81 538.535 182.674C539.658 183.537 540.289 184.708 540.291 185.929V207.607C540.289 208.828 539.658 209.999 538.535 210.862C537.412 211.726 535.89 212.212 534.302 212.213Z" fill="#E6E6E6"/>
<path d="M530.074 231.452H479.34C477.845 231.452 476.411 230.995 475.354 230.182C474.296 229.369 473.703 228.267 473.703 227.117C473.703 225.967 474.296 224.864 475.354 224.051C476.411 223.238 477.845 222.781 479.34 222.781H530.074C531.569 222.781 533.003 223.238 534.06 224.051C535.117 224.864 535.711 225.967 535.711 227.117C535.711 228.267 535.117 229.369 534.06 230.182C533.003 230.995 531.569 231.452 530.074 231.452Z" fill="#CCCCCC"/>
<path d="M495.194 90.5032H409.932C406.756 90.5005 403.712 89.5289 401.466 87.8018C399.22 86.0746 397.957 83.7329 397.953 81.2903V20.1429C397.957 17.7003 399.22 15.3586 401.466 13.6314C403.712 11.9043 406.756 10.9327 409.932 10.93H495.194C498.37 10.9327 501.415 11.9043 503.66 13.6314C505.906 15.3586 507.169 17.7003 507.173 20.1429V81.2903C507.169 83.7329 505.906 86.0746 503.66 87.8018C501.415 89.5289 498.37 90.5005 495.194 90.5032ZM409.932 12.0139C407.13 12.0163 404.444 12.8735 402.462 14.3975C400.481 15.9215 399.366 17.9877 399.363 20.1429V81.2903C399.366 83.4455 400.481 85.5118 402.462 87.0357C404.444 88.5597 407.13 89.4169 409.932 89.4194H495.194C497.996 89.4169 500.683 88.5597 502.664 87.0357C504.646 85.5118 505.761 83.4455 505.764 81.2903V20.1429C505.761 17.9877 504.646 15.9215 502.664 14.3975C500.683 12.8735 497.996 12.0163 495.194 12.0139H409.932Z" fill="#3F3D56"/>
<path d="M477.93 71.3102H427.196C425.701 71.3102 424.267 70.8534 423.21 70.0404C422.153 69.2273 421.559 68.1246 421.559 66.9747C421.559 65.8249 422.153 64.7221 423.21 63.9091C424.267 63.096 425.701 62.6392 427.196 62.6392H477.93C479.425 62.6392 480.859 63.096 481.916 63.9091C482.974 64.7221 483.568 65.8249 483.568 66.9747C483.568 68.1246 482.974 69.2273 481.916 70.0404C480.859 70.8534 479.425 71.3102 477.93 71.3102Z" fill="#CCCCCC"/>
<path d="M477.93 55.0522H427.196C425.701 55.0522 424.267 54.5954 423.21 53.7823C422.153 52.9693 421.559 51.8665 421.559 50.7167C421.559 49.5668 422.153 48.4641 423.21 47.651C424.267 46.838 425.701 46.3812 427.196 46.3812H477.93C479.425 46.3812 480.859 46.838 481.916 47.651C482.974 48.4641 483.568 49.5668 483.568 50.7167C483.568 51.8665 482.974 52.9693 481.916 53.7823C480.859 54.5954 479.425 55.0522 477.93 55.0522Z" fill="#CCCCCC"/>
<path d="M477.93 38.7941H427.196C425.701 38.7941 424.267 38.3373 423.21 37.5243C422.153 36.7112 421.559 35.6084 421.559 34.4586C421.559 33.3088 422.153 32.206 423.21 31.393C424.267 30.5799 425.701 30.1231 427.196 30.1231H477.93C479.425 30.1231 480.859 30.5799 481.916 31.393C482.974 32.206 483.568 33.3088 483.568 34.4586C483.568 35.6084 482.974 36.7112 481.916 37.5243C480.859 38.3373 479.425 38.7941 477.93 38.7941Z" fill="#CCCCCC"/>
<path d="M344.401 89.9613C353.351 89.9613 360.607 84.3807 360.607 77.4968C360.607 70.6128 353.351 65.0323 344.401 65.0323C335.45 65.0323 328.194 70.6128 328.194 77.4968C328.194 84.3807 335.45 89.9613 344.401 89.9613Z" fill="#6C63FF"/>
<path d="M342.794 82.2517C342.43 82.2522 342.075 82.1615 341.783 81.9933L341.765 81.9829L337.956 79.7402C337.779 79.6365 337.63 79.5069 337.518 79.3588C337.406 79.2108 337.333 79.0472 337.303 78.8774C337.274 78.7076 337.288 78.535 337.345 78.3695C337.403 78.204 337.502 78.0488 337.637 77.9128C337.773 77.7769 337.942 77.6628 338.135 77.5772C338.328 77.4916 338.541 77.4361 338.761 77.4139C338.982 77.3917 339.207 77.4033 339.422 77.4479C339.637 77.4926 339.838 77.5695 340.014 77.6741L342.481 79.129L348.311 73.2815C348.446 73.1459 348.615 73.0321 348.807 72.9466C349 72.8611 349.212 72.8056 349.433 72.7832C349.653 72.7608 349.877 72.7721 350.091 72.8162C350.306 72.8604 350.507 72.9367 350.684 73.0407L350.647 73.0785L350.685 73.0412C351.04 73.2515 351.273 73.5617 351.332 73.9037C351.39 74.2458 351.27 74.5918 350.998 74.8658L344.14 81.7438C343.982 81.9023 343.778 82.0306 343.544 82.1186C343.311 82.2067 343.054 82.2523 342.794 82.2517Z" fill="white"/>
<path d="M555.793 145.781C564.744 145.781 572 140.2 572 133.316C572 126.432 564.744 120.852 555.793 120.852C546.842 120.852 539.586 126.432 539.586 133.316C539.586 140.2 546.842 145.781 555.793 145.781Z" fill="#3F3D56"/>
<path d="M554.187 138.071C553.822 138.072 553.467 137.981 553.175 137.813L553.157 137.802L549.349 135.56C549.171 135.456 549.022 135.326 548.91 135.178C548.798 135.03 548.726 134.867 548.696 134.697C548.666 134.527 548.681 134.354 548.738 134.189C548.795 134.023 548.894 133.868 549.03 133.732C549.165 133.596 549.334 133.482 549.527 133.397C549.72 133.311 549.933 133.255 550.154 133.233C550.375 133.211 550.599 133.223 550.814 133.267C551.029 133.312 551.231 133.389 551.407 133.493L553.874 134.948L559.704 129.101C559.839 128.965 560.008 128.851 560.2 128.766C560.392 128.68 560.605 128.625 560.825 128.603C561.045 128.58 561.269 128.591 561.484 128.636C561.699 128.68 561.9 128.756 562.076 128.86L562.04 128.898L562.077 128.861C562.433 129.071 562.666 129.381 562.724 129.723C562.783 130.065 562.663 130.411 562.39 130.685L555.533 137.563C555.374 137.722 555.17 137.85 554.937 137.938C554.704 138.026 554.447 138.072 554.187 138.071Z" fill="white"/>
<path d="M504.354 24.929C513.305 24.929 520.561 19.3485 520.561 12.4645C520.561 5.58055 513.305 0 504.354 0C495.404 0 488.148 5.58055 488.148 12.4645C488.148 19.3485 495.404 24.929 504.354 24.929Z" fill="#3F3D56"/>
<path d="M502.748 17.2195C502.383 17.22 502.028 17.1293 501.737 16.9611L501.719 16.9506L497.91 14.7079C497.733 14.6042 497.584 14.4746 497.472 14.3266C497.36 14.1785 497.287 14.0149 497.257 13.8451C497.227 13.6754 497.242 13.5028 497.299 13.3373C497.356 13.1717 497.456 13.0165 497.591 12.8806C497.726 12.7446 497.895 12.6305 498.088 12.5449C498.281 12.4593 498.494 12.4038 498.715 12.3816C498.936 12.3594 499.16 12.371 499.375 12.4157C499.59 12.4603 499.792 12.5372 499.968 12.6418L502.435 14.0967L508.265 8.24928C508.4 8.11365 508.569 7.99984 508.761 7.91433C508.954 7.82883 509.166 7.77331 509.386 7.75094C509.607 7.72857 509.83 7.7398 510.045 7.78397C510.26 7.82815 510.461 7.90442 510.637 8.00842L510.601 8.04627L510.638 8.00897C510.994 8.21922 511.227 8.52941 511.285 8.87148C511.344 9.21354 511.224 9.55955 510.951 9.83359L504.094 16.7116C503.936 16.8701 503.732 16.9983 503.498 17.0864C503.265 17.1745 503.008 17.22 502.748 17.2195Z" fill="white"/>
<path d="M269.173 336H0.704642C0.517759 336 0.33853 335.943 0.206384 335.841C0.0742383 335.74 0 335.602 0 335.458C0 335.314 0.0742383 335.176 0.206384 335.075C0.33853 334.973 0.517759 334.916 0.704642 334.916H269.173C269.36 334.916 269.539 334.973 269.671 335.075C269.804 335.176 269.878 335.314 269.878 335.458C269.878 335.602 269.804 335.74 269.671 335.841C269.539 335.943 269.36 336 269.173 336Z" fill="#3F3D56"/>
</g>
<defs>
<clipPath id="clip0_34_12">
<rect width="572" height="336" fill="white"/>
</clipPath>
</defs>
</svg>
